<svg xmlns="http://www.w3.org/2000/svg" viewBox="0 0 300 46" width="300" height="46">
<rect x="10" y="7" width="280" height="14" fill="currentColor" opacity=".08"/><g stroke="currentColor" stroke-width="1.2" fill="none" opacity=".55"><line x1="240" y1="36" x2="190" y2="36"/><path d="M190,36 l6,-4 M190,36 l6,4"/></g><text x="246" y="40" fill="currentColor" font-size="13" opacity=".6" text-anchor="start">진행</text><line x1="284" y1="14" x2="272" y2="14" stroke="currentColor" stroke-width="3" stroke-linecap="round"/><line x1="272" y1="14" x2="260" y2="14" stroke="currentColor" stroke-width="1.2" stroke-dasharray="2 2" opacity=".5"/><line x1="260" y1="14" x2="248" y2="14" stroke="currentColor" stroke-width="3" stroke-linecap="round"/><line x1="248" y1="14" x2="236" y2="14" stroke="currentColor" stroke-width="1.2" stroke-dasharray="2 2" opacity=".5"/><line x1="236" y1="14" x2="224" y2="14" stroke="currentColor" stroke-width="3" stroke-linecap="round"/><line x1="224" y1="14" x2="212" y2="14" stroke="currentColor" stroke-width="1.2" stroke-dasharray="2 2" opacity=".5"/><line x1="212" y1="14" x2="200" y2="14" stroke="currentColor" stroke-width="3" stroke-linecap="round"/><line x1="200" y1="14" x2="188" y2="14" stroke="currentColor" stroke-width="1.2" stroke-dasharray="2 2" opacity=".5"/><line x1="188" y1="14" x2="176" y2="14" stroke="currentColor" stroke-width="3" stroke-linecap="round"/><line x1="176" y1="14" x2="164" y2="14" stroke="currentColor" stroke-width="1.2" stroke-dasharray="2 2" opacity=".5"/><line x1="164" y1="14" x2="152" y2="14" stroke="currentColor" stroke-width="3" stroke-linecap="round"/><line x1="152" y1="14" x2="140" y2="14" stroke="currentColor" stroke-width="1.2" stroke-dasharray="2 2" opacity=".5"/><line x1="140" y1="14" x2="128" y2="14" stroke="currentColor" stroke-width="3" stroke-linecap="round"/><line x1="128" y1="14" x2="116" y2="14" stroke="currentColor" stroke-width="1.2" stroke-dasharray="2 2" opacity=".5"/><line x1="116" y1="14" x2="104" y2="14" stroke="currentColor" stroke-width="3" stroke-linecap="round"/><line x1="104" y1="14" x2="92" y2="14" stroke="currentColor" stroke-width="1.2" stroke-dasharray="2 2" opacity=".5"/><line x1="92" y1="14" x2="80" y2="14" stroke="currentColor" stroke-width="3" stroke-linecap="round"/><line x1="80" y1="14" x2="68" y2="14" stroke="currentColor" stroke-width="1.2" stroke-dasharray="2 2" opacity=".5"/><line x1="68" y1="14" x2="56" y2="14" stroke="currentColor" stroke-width="3" stroke-linecap="round"/><line x1="56" y1="14" x2="44" y2="14" stroke="currentColor" stroke-width="1.2" stroke-dasharray="2 2" opacity=".5"/><line x1="44" y1="14" x2="32" y2="14" stroke="currentColor" stroke-width="3" stroke-linecap="round"/>
</svg>
